<svg width="32" height="32" viewBox="0 0 32 32" fill="none" xmlns="http://www.w3.org/2000/svg">
<path fill-rule="evenodd" clip-rule="evenodd" d="M15.2897 2.1454C15.0768 2.25663 14.9523 2.37077 14.8324 2.56469C14.6722 2.82396 14.6671 2.85289 14.6482 3.6288L14.6287 4.42641L14.1559 4.51933C10.6932 5.19964 8.04448 8.17426 7.69393 11.7763C7.66583 12.065 7.64209 13.2364 7.64122 14.3793C7.63947 16.621 7.60671 17.0044 7.33765 17.9356C7.13022 18.6536 6.80696 19.3525 6.38603 19.9934C5.96625 20.6326 5.62642 21.0313 4.97487 21.6489C4.29926 22.2893 4.05492 22.906 4.19492 23.6174C4.36877 24.501 4.98865 25.1218 5.86267 25.2872C6.10209 25.3326 8.85271 25.345 16.0345 25.3331L25.8783 25.3168L26.1926 25.1899C26.6313 25.0128 27.0634 24.6021 27.2852 24.1516C27.4474 23.8219 27.4642 23.7417 27.464 23.2945C27.4635 22.5495 27.3199 22.2894 26.391 21.352C25.1584 20.1079 24.5046 18.9308 24.1495 17.316C24.0432 16.8328 24.0291 16.547 23.9916 14.1059C23.9468 11.1932 23.9301 11.025 23.5787 9.94542C22.6922 7.22116 20.3094 5.09486 17.4913 4.51326L17.0189 4.4158L16.9916 3.62803C16.9609 2.74352 16.8982 2.54145 16.5712 2.27189C16.1929 1.96001 15.7317 1.91451 15.2897 2.1454ZM7.66736 2.94865C7.38637 3.04654 6.60811 3.85159 5.95318 4.72173C4.15697 7.10829 3.14771 9.89757 3.01285 12.8481C2.97178 13.7463 3.01947 13.988 3.29875 14.2972C3.82222 14.8766 4.76 14.7793 5.1555 14.1044C5.29036 13.8743 5.30568 13.7853 5.34811 12.9841C5.44343 11.1851 5.81405 9.70398 6.54522 8.19963C7.08816 7.08248 7.66506 6.2334 8.5551 5.24126C9.14272 4.58616 9.23377 4.42669 9.23372 4.05224C9.23372 3.69672 9.15655 3.4912 8.9355 3.25741C8.59568 2.89806 8.13461 2.78579 7.66736 2.94865ZM23.1514 2.94772C22.7173 3.10248 22.409 3.55114 22.4068 4.03146C22.4051 4.40755 22.5096 4.60858 22.9578 5.09163C25.0824 7.38134 26.1456 9.92978 26.3191 13.1489C26.359 13.8889 26.4248 14.0947 26.7072 14.3628C27.2785 14.9049 28.1678 14.7277 28.5435 13.997C28.6482 13.7933 28.6535 13.7162 28.6221 12.8486C28.5277 10.2324 27.7122 7.70323 26.2555 5.50835C25.4959 4.36385 24.4369 3.16215 24.0189 2.97036C23.7603 2.85169 23.4439 2.84343 23.1514 2.94772ZM11.6099 26.7797C11.7441 27.2546 12.1528 28.0282 12.4754 28.4179C13.0137 29.0681 13.9031 29.6334 14.7494 29.8632C15.2931 30.0109 16.3956 29.9992 16.9532 29.8399C18.4261 29.4191 19.5551 28.3313 19.9932 26.9107C20.0568 26.7045 20.1088 26.5261 20.1088 26.5142C20.1088 26.5023 18.1782 26.4926 15.8187 26.4926H11.5287L11.6099 26.7797Z" fill="white"/>
</svg>
