<svg width="32" height="32" viewBox="0 0 32 32" fill="none" xmlns="http://www.w3.org/2000/svg">
<g clip-path="url(#clip0_102_3779)">
<path d="M30.125 8.49774H29.8916V21.2072C29.8916 23.2749 28.2094 24.9572 26.1416 24.9572H3.9834V25.1906C3.9834 26.2261 4.82284 27.0656 5.8584 27.0656H30.125C31.1606 27.0656 32 26.2261 32 25.1906V10.3727C32 9.33718 31.1606 8.49774 30.125 8.49774Z" fill="white"/>
<path d="M28.0166 21.2072V6.80902C28.0166 5.77352 27.1772 4.93402 26.1416 4.93402H1.875C0.839437 4.93402 0 5.77352 0 6.80902V21.2072C0 22.2427 0.839437 23.0822 1.875 23.0822H26.1416C27.1771 23.0822 28.0166 22.2428 28.0166 21.2072ZM2.98756 8.1744H7.84312V10.0494H2.98756V8.1744ZM9.92 14.0328H2.98756V12.1578H9.92V14.0328ZM24.9707 20.0363H23.0957V18.1613H24.9707V20.0363Z" fill="white"/>
</g>
<defs>
<clipPath id="clip0_102_3779">
<rect width="32" height="32" fill="white"/>
</clipPath>
</defs>
</svg>
