<svg width="39" height="39" viewBox="0 0 39 39" fill="none" xmlns="http://www.w3.org/2000/svg">
<path fill-rule="evenodd" clip-rule="evenodd" d="M11.094 10.1178C10.0866 10.3887 9.91297 10.5493 7.26876 13.656L5.43234 15.8136L3.77061 15.8522C2.14857 15.8898 2.09755 15.8959 1.63799 16.1083C1.04873 16.3806 0.524823 16.9071 0.244028 17.5089L0.0282683 17.9712L0.00453481 20.1143C-0.0104142 21.4584 0.0120864 22.4082 0.0647933 22.6622C0.405462 24.3031 1.80366 25.4072 3.54091 25.4072H4.05441L4.0182 24.733C3.86801 21.9369 6.1274 19.5536 8.92834 19.5536C11.7293 19.5536 13.9887 21.9369 13.8385 24.733L13.8023 25.4072H20.0245H26.2468L26.2106 24.733C26.0604 21.9369 28.3198 19.5536 31.1207 19.5536C33.9265 19.5536 36.1812 21.9366 36.0303 24.7426L35.9936 25.4266L36.3757 25.3813C37.2824 25.2739 38.1752 24.6139 38.5703 23.759L38.7879 23.2882V21.2462V19.2042L38.5856 18.7803C38.3036 18.1897 37.9139 17.7706 37.384 17.4881C36.9806 17.2731 36.516 17.1711 33.1007 16.5477L29.2699 15.8483L26.1305 13.244C24.4039 11.8116 22.8352 10.5487 22.6445 10.4374C21.8959 10.0006 21.822 9.99538 16.4445 10.0009C12.3866 10.0051 11.4358 10.0258 11.094 10.1178ZM13.2615 11.9045L13.5132 12.1564V13.7331V15.3098L13.2614 15.5617L13.0096 15.8136L10.7025 15.8361C8.46684 15.858 8.39056 15.8538 8.23806 15.7013C8.15153 15.6148 8.08071 15.4758 8.08071 15.3926C8.08071 15.2189 10.7356 12.0533 11.1092 11.7815C11.3371 11.6157 11.4176 11.6041 12.1827 11.6274C13.0003 11.6523 13.0127 11.6554 13.2615 11.9045ZM21.6488 11.8437C21.8361 11.97 22.8564 12.7603 23.9159 13.6001C25.6124 14.9448 25.8451 15.1553 25.8657 15.3643C25.9167 15.8801 26.1484 15.858 20.9434 15.8346L16.2517 15.8136L15.9998 15.5617L15.7479 15.3098V13.7378C15.7479 12.1677 15.7481 12.1656 15.9405 11.9586C16.0465 11.8446 16.2025 11.7226 16.2873 11.6876C16.372 11.6525 17.5364 11.6216 18.8748 11.6189L21.3081 11.614L21.6488 11.8437ZM18.8096 17.6837C19.0262 17.9005 19.0613 17.989 19.0613 18.318C19.0613 18.647 19.0263 18.7354 18.8094 18.9523L18.5575 19.2042H17.5587H16.5599L16.308 18.9523C16.092 18.7363 16.0561 18.6464 16.0561 18.3227C16.0561 18.0266 16.0976 17.9004 16.2487 17.7378C16.5388 17.4258 16.6717 17.3952 17.6538 17.4143L18.5579 17.4318L18.8096 17.6837ZM7.97545 20.5978C6.5704 20.9379 5.37432 22.147 5.04005 23.565C4.36264 26.4388 6.97209 29.0483 9.84585 28.3708C11.2827 28.0322 12.478 26.8369 12.8166 25.4001C13.137 24.0407 12.7418 22.6674 11.7426 21.6683C10.7426 20.6682 9.33589 20.2685 7.97545 20.5978ZM30.1678 20.5978C28.7628 20.9379 27.5667 22.147 27.2324 23.565C26.7305 25.6946 28.0747 27.8691 30.2032 28.3708C33.077 29.0483 35.6864 26.4388 35.009 23.565C34.5056 21.4292 32.3052 20.0805 30.1678 20.5978ZM9.49732 22.7269C10.1596 22.9225 10.7777 23.7702 10.7777 24.4826C10.7777 25.1949 10.1596 26.0426 9.49732 26.2382C8.77484 26.4517 8.19884 26.3012 7.65428 25.7566C6.87469 24.977 6.87469 23.9889 7.65428 23.2076C8.19483 22.6659 8.77707 22.5141 9.49732 22.7269ZM31.6897 22.7269C32.3519 22.9225 32.9701 23.7702 32.9701 24.4826C32.9701 25.4374 32.0755 26.3319 31.1207 26.3319C30.636 26.3319 30.2457 26.1557 29.8467 25.7566C29.0671 24.977 29.0671 23.9889 29.8467 23.2076C30.3872 22.6659 30.9695 22.5141 31.6897 22.7269Z" fill="white"/>
</svg>
