<svg width="24" height="23" viewBox="0 0 24 23" fill="none" xmlns="http://www.w3.org/2000/svg">
<path fill-rule="evenodd" clip-rule="evenodd" d="M9.76166 0.016447C9.43096 0.0864783 9.25054 0.29001 9.19222 0.658822C9.16485 0.832025 9.09965 0.963182 8.93901 1.16788C8.58388 1.62051 8.46266 1.93424 8.46121 2.40454C8.45966 2.90765 8.55876 3.20432 8.86232 3.60534C9.2504 4.1181 9.26127 4.17393 9.03168 4.47515C8.66947 4.95032 8.62377 5.04178 8.62377 5.29129C8.62377 5.70623 8.92897 6.01368 9.34096 6.01382C9.60955 6.01396 9.76841 5.90606 10.0851 5.50846C10.5277 4.95267 10.6154 4.72992 10.6154 4.16235C10.6154 3.61696 10.5323 3.39018 10.1446 2.87784C9.85321 2.49267 9.84707 2.36142 10.1059 2.04726C10.4669 1.60884 10.6394 1.19488 10.6394 0.7664C10.6394 0.271775 10.2255 -0.081803 9.76166 0.016447ZM6.42065 0.0442908C6.2286 0.120744 6.04752 0.363885 5.99244 0.619166C5.95372 0.798744 5.87001 0.96951 5.72619 1.16235C5.34936 1.66757 5.27221 1.88667 5.27221 2.45142C5.27221 2.89528 5.28505 2.96976 5.40313 3.21018C5.47513 3.35681 5.62804 3.59095 5.74297 3.73054C6.03458 4.08482 6.02821 4.20932 5.69591 4.64793C5.5551 4.83379 5.42652 5.05729 5.41011 5.14467C5.29925 5.73571 5.9345 6.21323 6.4574 5.93189C6.63496 5.83636 7.08407 5.29064 7.24391 4.9762C7.39935 4.67034 7.46155 4.23487 7.40249 3.86531C7.34619 3.5129 7.21147 3.23292 6.91691 2.85595C6.63233 2.49173 6.63533 2.39404 6.94368 1.9927C7.23674 1.61118 7.35421 1.35792 7.40511 0.997494C7.45705 0.630322 7.39911 0.408041 7.19966 0.208541C7.0543 0.0631814 7.0026 0.0420408 6.76288 0.0299939C6.6133 0.022447 6.45932 0.0289158 6.42065 0.0442908ZM12.6354 0.208728C12.4668 0.377244 12.4236 0.456744 12.3965 0.647807C12.3718 0.821619 12.3109 0.948791 12.1578 1.14646C12.0447 1.29243 11.8941 1.52446 11.8231 1.66209C11.7053 1.8906 11.6941 1.95717 11.6941 2.42798C11.6941 2.8941 11.7063 2.96849 11.8215 3.20301C11.8915 3.34565 12.0445 3.58551 12.1613 3.73598C12.4444 4.10048 12.4438 4.22606 12.1575 4.59032C11.7925 5.05462 11.7389 5.27231 11.905 5.61548C12.0748 5.96606 12.5406 6.11831 12.8732 5.93189C13.0246 5.847 13.4021 5.4141 13.5826 5.11814C13.7616 4.8247 13.8313 4.55587 13.8314 4.15865C13.8316 3.67415 13.7169 3.35859 13.3779 2.91112C13.0553 2.48526 13.0505 2.3864 13.3353 2.02396C13.6296 1.64938 13.7732 1.35051 13.8168 1.02173C13.8694 0.626244 13.8114 0.390838 13.6145 0.199963C13.4699 0.0598532 13.4164 0.0395564 13.1462 0.0223532L12.8412 0.00290012L12.6354 0.208728ZM0.876223 8.157C0.804551 8.16782 0.66477 8.25431 0.565676 8.34918C0.350332 8.55534 0.28527 8.79642 0.137238 9.93637C-0.390855 14.0032 0.624832 18.2148 2.84427 21.1612C3.26043 21.7137 3.85124 22.3495 4.049 22.4579C4.18302 22.5313 4.604 22.5374 9.56469 22.5374H14.9354L15.0959 22.4246C15.3142 22.2714 15.9605 21.5505 16.3345 21.043C17.7188 19.1647 18.5901 16.881 18.9658 14.1467C19.0832 13.2926 19.0851 10.839 18.9691 10.0217C18.8608 9.25851 18.7656 8.7329 18.7104 8.59204C18.6396 8.41158 18.4036 8.21404 18.2032 8.16754C18.0276 8.12676 1.14458 8.1165 0.876223 8.157ZM20.6238 9.71236C20.4483 9.73575 20.4146 9.75623 20.4235 9.83423C20.4431 10.0056 20.529 11.0518 20.5294 11.1233C20.5297 11.1817 20.6014 11.1911 20.9518 11.1786C21.6954 11.152 22.1471 11.3671 22.391 11.864C22.5076 12.1013 22.5215 12.1781 22.5154 12.553C22.5005 13.4811 22.0155 14.6879 21.2755 15.6383C21.0218 15.964 20.2479 16.7515 20.0444 16.891C19.8997 16.9902 19.8613 17.0648 19.7083 17.5436C19.6132 17.841 19.4446 18.311 19.3335 18.5881C19.2224 18.8653 19.1456 19.0919 19.1628 19.0916C19.18 19.0914 19.4009 18.9863 19.6536 18.8581C21.2129 18.0672 22.5017 16.75 23.2906 15.1408C23.8517 13.9965 24.1093 12.7496 23.9483 11.9576C23.6936 10.705 22.7836 9.88486 21.4649 9.71948C21.0512 9.66764 20.965 9.66689 20.6238 9.71236Z" fill="#289944"/>
</svg>
