<svg width="11" height="17" viewBox="0 0 11 17" fill="none" xmlns="http://www.w3.org/2000/svg">
<path fill-rule="evenodd" clip-rule="evenodd" d="M7.57052 0C9.67988 2.12001 10.9902 5.03902 10.9902 8.25632C10.9902 11.4736 9.67988 14.3926 7.57052 16.5126L6.0684 15.0105C7.79424 13.2847 8.85957 10.8877 8.85957 8.25632C8.85957 5.62495 7.79424 3.22796 6.0684 1.50212L7.57052 0ZM2.99985 4.45309L4.52328 2.92966C5.8869 4.29329 6.72852 6.17893 6.72852 8.25632C6.72852 10.3337 5.8869 12.2194 4.52328 13.583L2.99985 12.0596C3.96931 11.0901 4.57654 9.73713 4.57654 8.25632C4.57654 6.77551 3.96931 5.42254 2.99985 4.45309Z" fill="white"/>
<path d="M1.22571 5L0 5.858C0.78 6.404 1.26857 7.166 1.26857 8C1.26857 8.834 0.78 9.596 0 10.142L1.22571 11C2.32286 10.232 3 9.17 3 8C3 6.83 2.32286 5.768 1.22571 5Z" fill="white"/>
</svg>
