<svg width="24" height="24" viewBox="0 0 24 24" fill="none" xmlns="http://www.w3.org/2000/svg">
<path fill-rule="evenodd" clip-rule="evenodd" d="M14.4493 0.0529707C14.3408 0.0884608 14.1507 0.192772 14.0268 0.284736C13.903 0.376747 12.1434 2.11149 10.1166 4.13978L6.43164 7.8276H10.5662H14.7009L16.4577 5.96273C17.4239 4.93708 18.361 3.94294 18.54 3.75352L18.8656 3.40918L17.296 1.83607C16.1618 0.699397 15.6613 0.229388 15.4917 0.141931C15.208 -0.00434856 14.7455 -0.0438289 14.4493 0.0529707ZM18.6605 5.67557C18.0021 6.37485 17.2767 7.14512 17.0486 7.38731L16.6338 7.8276L17.7293 7.82375L18.8248 7.8199L19.881 6.69328C20.462 6.07366 20.9426 5.55229 20.9492 5.53469C20.9558 5.51713 20.7128 5.25555 20.4093 4.95342L19.8575 4.40412L18.6605 5.67557ZM21.3652 7.15963L20.7604 7.80413L21.9051 7.83511C22.5347 7.8522 23.1223 7.88882 23.211 7.91647C23.2996 7.94416 23.3781 7.96092 23.3853 7.95365C23.3926 7.94642 23.0771 7.61978 22.6843 7.22784L21.9701 6.51517L21.3652 7.15963ZM1.1101 9.28612C0.692902 9.36874 0.296924 9.69745 0.0988652 10.1255L0 10.3391V16.6297V22.9203L0.122572 23.1816C0.267537 23.4907 0.515263 23.745 0.815568 23.893L1.03278 24H11.9943H22.9559L23.1718 23.8936C23.4658 23.7488 23.719 23.4879 23.866 23.1785L23.9887 22.9203V16.6297V10.3391L23.8582 10.0734C23.7079 9.7674 23.4374 9.50375 23.1259 9.35973L22.9089 9.25941L12.1117 9.25251C6.17321 9.2487 1.22248 9.26382 1.1101 9.28612ZM6.48905 12.1245C6.76438 12.2395 6.94024 12.3989 7.08985 12.669L7.22946 12.9211V14.2355V15.55L7.08985 15.8021C7.01305 15.9407 6.88512 16.1038 6.80565 16.1644C6.48018 16.4127 6.43347 16.4185 4.75131 16.4185H3.18561L2.93103 16.2894C2.64129 16.1424 2.39995 15.8564 2.32225 15.5679C2.28967 15.4469 2.27648 14.9263 2.28578 14.1263C2.29958 12.9347 2.30535 12.8647 2.4052 12.6779C2.52731 12.4495 2.80874 12.1985 3.03436 12.1169C3.14566 12.0766 3.65327 12.0587 4.75464 12.0562C6.05712 12.0532 6.34568 12.0646 6.48905 12.1245ZM3.68515 14.2355V15.0101H4.76487H5.8446V14.2355V13.4609H4.76487H3.68515V14.2355ZM5.65682 20.2679V20.9721H3.91987H2.18292V20.2679V19.5637H3.91987H5.65682V20.2679ZM11.0554 20.2679V20.9721H9.31849H7.58155V20.2679V19.5637H9.31849H11.0554V20.2679ZM16.4071 20.2679V20.9721H14.6702H12.9332V20.2679V19.5637H14.6702H16.4071V20.2679ZM21.8057 20.2679V20.9721H20.0688H18.3318V20.2679V19.5637H20.0688H21.8057V20.2679Z" fill="#151424"/>
</svg>
