<svg width="24" height="24" viewBox="0 0 24 24" fill="none" xmlns="http://www.w3.org/2000/svg">
<path fill-rule="evenodd" clip-rule="evenodd" d="M14.4279 0.0528922C14.3196 0.0883297 14.1297 0.192486 14.0061 0.284314C13.8824 0.376189 12.1254 2.10836 10.1017 4.13364L6.42211 7.816H10.5506H14.6791L16.4333 5.95389C17.3981 4.92977 18.3337 3.93709 18.5125 3.74795L18.8376 3.40413L17.2703 1.83335C16.1379 0.698361 15.6381 0.229048 15.4688 0.14172C15.1855 -0.00434212 14.7236 -0.043764 14.4279 0.0528922ZM18.6328 5.66716C17.9754 6.36541 17.2511 7.13453 17.0233 7.37636L16.6092 7.816L17.703 7.81216L18.7969 7.80831L19.8516 6.68336C20.4316 6.06466 20.9116 5.54406 20.9182 5.52648C20.9247 5.50895 20.6821 5.24777 20.3791 4.94608L19.8281 4.39759L18.6328 5.66716ZM21.3336 7.14902L20.7296 7.79256L21.8726 7.8235C22.5013 7.84056 23.088 7.87713 23.1766 7.90473C23.2651 7.93239 23.3435 7.94912 23.3507 7.94186C23.3579 7.93464 23.0429 7.60848 22.6507 7.21713L21.9375 6.50552L21.3336 7.14902ZM1.10845 9.27236C0.691875 9.35486 0.296484 9.68308 0.0987187 10.1105L0 10.3238V16.6051V22.8863L0.122391 23.1473C0.267141 23.4559 0.5145 23.7099 0.814359 23.8576L1.03125 23.9644H11.9766H22.9219L23.1375 23.8582C23.431 23.7136 23.6839 23.4531 23.8306 23.1441L23.9531 22.8863V16.6051V10.3238L23.8228 10.0585C23.6728 9.75292 23.4027 9.48967 23.0917 9.34586L22.875 9.24569L12.0938 9.2388C6.16406 9.235 1.22067 9.25009 1.10845 9.27236ZM6.47944 12.1065C6.75436 12.2214 6.92995 12.3805 7.07934 12.6502L7.21875 12.9019V14.2144V15.5269L7.07934 15.7787C7.00266 15.9171 6.87492 16.0799 6.79556 16.1405C6.47058 16.3884 6.42394 16.3941 4.74427 16.3941H3.18089L2.92669 16.2652C2.63738 16.1185 2.39639 15.8329 2.31881 15.5448C2.28628 15.424 2.27311 14.9042 2.28239 14.1054C2.29617 12.9156 2.30194 12.8456 2.40164 12.6591C2.52356 12.431 2.80458 12.1804 3.02986 12.0989C3.141 12.0587 3.64786 12.0408 4.74759 12.0383C6.04814 12.0354 6.33628 12.0467 6.47944 12.1065ZM3.67969 14.2144V14.9879H4.75781H5.83594V14.2144V13.441H4.75781H3.67969V14.2144ZM5.64844 20.2379V20.941H3.91406H2.17969V20.2379V19.5347H3.91406H5.64844V20.2379ZM11.0391 20.2379V20.941H9.30469H7.57031V20.2379V19.5347H9.30469H11.0391V20.2379ZM16.3828 20.2379V20.941H14.6484H12.9141V20.2379V19.5347H14.6484H16.3828V20.2379ZM21.7734 20.2379V20.941H20.0391H18.3047V20.2379V19.5347H20.0391H21.7734V20.2379Z" fill="#289944"/>
</svg>
