<svg width="24" height="20" viewBox="0 0 24 20" fill="none" xmlns="http://www.w3.org/2000/svg">
<path fill-rule="evenodd" clip-rule="evenodd" d="M23.1099 0.0783351C22.9313 0.25646 22.4203 1.09482 22.1558 1.64377C21.7124 2.56379 21.4528 3.4381 21.3018 4.51974C21.2616 4.80811 21.2425 5.63888 21.2416 7.14474C21.2402 9.32855 21.2411 9.34932 21.3424 9.51192C21.4777 9.7291 21.6793 9.84136 21.9917 9.87356C22.3004 9.90544 22.2847 9.76599 22.1552 11.325C21.9624 13.6455 21.7515 17.5291 21.7913 18.0257C21.8216 18.4026 22.0412 18.8724 22.2785 19.068C22.7955 19.4942 23.4683 19.3031 23.7925 18.6382C23.8704 18.4785 23.9475 18.2297 23.9639 18.0852C24.0135 17.6475 23.8029 13.799 23.5829 11.1227C23.4692 9.74016 23.4667 9.60769 23.4667 4.90172C23.4667 0.195804 23.4648 0.0923038 23.3761 0.0448195C23.2508 -0.0222117 23.205 -0.0164461 23.1099 0.0783351ZM0.390306 0.970179C0.285447 1.08601 0.281322 1.13007 0.117165 3.87887C-0.0227565 6.22247 -0.0258971 6.34566 0.0476498 6.64355C0.179134 7.17643 0.40854 7.48074 1.12657 8.07493C1.37412 8.27977 1.51892 8.53022 1.55749 8.82038C1.57207 8.93002 1.52913 9.60882 1.46215 10.3288C1.23096 12.8131 0.991197 16.8725 1.02176 17.7854C1.04281 18.4149 1.11307 18.6363 1.39315 18.9553C1.77743 19.3929 2.31992 19.4163 2.74043 19.0134C3.07939 18.6887 3.22292 18.1982 3.18898 17.4805C3.17862 17.2614 3.14839 16.6182 3.12181 16.051C3.04043 14.3154 2.89278 12.1446 2.7446 10.507C2.66618 9.64017 2.61757 8.86969 2.6352 8.77261C2.7019 8.40488 2.85715 8.20083 3.35014 7.83291C3.82737 7.47675 4.14143 6.91932 4.18681 6.34786C4.20757 6.08602 3.94924 1.50924 3.89543 1.18632C3.86042 0.976085 3.73146 0.877694 3.51429 0.895553C3.36739 0.9076 3.3207 0.936757 3.26276 1.05263C3.19878 1.1806 3.20164 1.39688 3.29131 3.20888C3.35848 4.56666 3.37615 5.26533 3.34564 5.35318C3.27917 5.54433 3.06687 5.64099 2.86193 5.57335C2.7731 5.54405 2.67495 5.47425 2.64387 5.41833C2.60459 5.34765 2.57084 4.67621 2.5332 3.21685L2.4791 1.11708L2.36895 0.999803C2.21984 0.841085 1.93085 0.855616 1.80251 1.02826C1.72203 1.13649 1.71101 1.30899 1.66751 3.13763C1.64149 4.23296 1.59888 5.2081 1.57292 5.30461C1.51104 5.5343 1.30746 5.65121 1.09704 5.57785C0.784338 5.46886 0.784009 5.46394 0.915588 2.87912C0.962791 1.95099 0.990447 1.15998 0.976947 1.1213C0.895197 0.88646 0.547197 0.796788 0.390306 0.970179ZM11.7011 1.29127C11.6367 1.30037 11.4046 1.3314 11.1855 1.36023C10.4533 1.45651 9.4602 1.7701 8.73889 2.13273C8.02451 2.49188 7.12039 3.18901 6.49432 3.86349C4.30709 6.21975 3.80407 9.83883 5.25907 12.7508C6.4129 15.06 8.61007 16.6528 11.2089 17.0642C11.7087 17.1434 13.0312 17.1441 13.5292 17.0654C16.8502 16.5411 19.4803 14.055 20.1403 10.8161C20.7104 8.01867 19.7457 5.1256 17.6186 3.25397C16.1499 1.96172 14.2123 1.2414 12.2772 1.2683C12.0248 1.27182 11.7656 1.28213 11.7011 1.29127ZM13.2714 3.25332C14.3764 3.43435 15.2485 3.81694 16.1184 4.50207C17.264 5.40446 18.0796 6.79918 18.3195 8.26613C18.3893 8.69283 18.3893 9.72164 18.3195 10.1483C17.9567 12.3669 16.3617 14.2268 14.2089 14.9419C13.7128 15.1067 13.2396 15.1878 12.6152 15.2151C10.2286 15.3193 8.02882 14.0121 6.9649 11.8576C6.54467 11.0066 6.35764 10.1904 6.35764 9.20724C6.35764 7.99486 6.67864 6.89747 7.31482 5.93452C8.32395 4.40719 9.74337 3.51769 11.6542 3.21512C11.9486 3.16852 12.8896 3.19074 13.2714 3.25332ZM12.0292 4.80718C11.3204 4.88668 10.8214 5.03743 10.2533 5.34371C9.18748 5.91835 8.41995 6.90746 8.08189 8.14205C7.93882 8.66442 7.93962 9.75 8.08348 10.2854C8.22078 10.7963 8.59925 11.5462 8.92831 11.9592C10.0034 13.3087 11.8096 13.9063 13.494 13.4699C14.9481 13.093 16.1486 11.9189 16.606 10.426C16.7255 10.036 16.7352 9.94383 16.7352 9.20724C16.7352 8.47064 16.7255 8.37844 16.606 7.98849C16.124 6.41555 14.8286 5.20819 13.2949 4.90247C12.908 4.82536 12.2851 4.77849 12.0292 4.80718Z" fill="#289944"/>
</svg>
