<svg width="34" height="34" viewBox="0 0 34 34" fill="none" xmlns="http://www.w3.org/2000/svg">
<path fill-rule="evenodd" clip-rule="evenodd" d="M6.54499 3.0506C5.42193 3.27602 4.56744 4.03874 4.15695 5.1822L4.02937 5.53767L4.01466 18.2662L4 30.9947H11.7939H19.588V25.1705V19.3463H20.7364H21.8848L21.8858 23.1607C21.8864 25.2587 21.9097 27.1927 21.9377 27.4586C22.1412 29.3934 23.6597 30.8619 25.5781 30.9792C26.2558 31.0206 26.849 30.8967 27.5159 30.5745C27.958 30.3609 28.1062 30.2515 28.5302 29.8256C28.9311 29.4228 29.0707 29.2372 29.2548 28.8619C29.7098 27.9345 29.6778 28.6284 29.6778 19.7017V11.772L29.5542 11.3455C29.4123 10.8562 29.176 10.3614 28.8959 9.96736C28.789 9.81697 27.3712 8.35862 25.7454 6.72663L22.7894 3.75935L21.9542 4.59333L21.1189 5.42731L22.759 7.06843L24.3992 8.70955L23.9954 8.91703C23.0228 9.41682 22.2681 10.3833 22.022 11.4439C21.8947 11.9928 21.9073 12.8177 22.0507 13.3292C22.3997 14.5728 23.373 15.6155 24.5507 16.0072C25.4154 16.2947 26.4694 16.2645 27.2589 15.9295C27.351 15.8904 27.3548 16.161 27.3409 21.7053L27.3262 27.522L27.178 27.803C26.5848 28.9277 25.0052 28.9248 24.4288 27.7979L24.2637 27.4753L24.2357 23.4792C24.208 19.5349 24.206 19.4784 24.0865 19.1275C23.8355 18.3903 23.2029 17.6662 22.5135 17.3268C21.9888 17.0685 21.5534 16.9967 20.504 16.9956L19.588 16.9947L19.587 11.4302C19.5859 5.25598 19.5962 5.44749 19.2254 4.69406C18.8308 3.89207 17.928 3.21154 17.0486 3.05317C16.6641 2.98393 6.88914 2.98153 6.54499 3.0506ZM16.4708 9.9947V13.8775H11.795H7.11921V9.9947V6.11189H11.795H16.4708V9.9947ZM26.1068 10.8222C27.121 11.0387 27.6227 12.0933 27.1607 13.0377C26.7148 13.949 25.4681 14.1513 24.7274 13.4325C24.1266 12.8495 24.099 11.8967 24.6651 11.2873C24.876 11.0604 25.1679 10.8875 25.4442 10.8259C25.7743 10.7522 25.779 10.7522 26.1068 10.8222Z" fill="white"/>
</svg>
