<svg width="23" height="24" viewBox="0 0 23 24" fill="none" xmlns="http://www.w3.org/2000/svg">
<path fill-rule="evenodd" clip-rule="evenodd" d="M7.95976 0.0349746C7.48079 0.130084 7.01083 0.456475 6.71837 0.897053C6.41129 1.35976 6.39976 1.43387 6.36859 3.14593L6.34047 4.69037L4.18421 6.64065L2.02796 8.59093L2.01526 14.729C2.00392 20.1902 2.01076 20.9085 2.07718 21.2421C2.22249 21.9717 2.50398 22.5036 3.01703 23.0178C3.40642 23.4082 3.80312 23.6555 4.32484 23.8332L4.69984 23.9609H12.1998H19.6998L20.0514 23.8517C21.1431 23.5129 21.9879 22.6421 22.3105 21.5234L22.4186 21.1484V11.9843V2.82024L22.3105 2.44524C21.9918 1.33988 21.1676 0.481693 20.0748 0.117193L19.7467 0.00774018L13.9577 0.000615178C10.7565 -0.00332232 8.07526 0.0120527 7.95976 0.0349746ZM16.673 1.56633C16.5884 1.66304 16.0981 2.22202 15.5834 2.80852L14.6476 3.87493H11.2089H7.77015V2.87808C7.77015 1.75716 7.79814 1.63876 8.10118 1.47619C8.2525 1.39505 8.48537 1.39055 12.5438 1.39055H16.8267L16.673 1.56633ZM2.16353 3.59949C0.980354 4.63393 0.00680661 5.48495 0.000103483 5.49066C-0.00664652 5.49634 0.317682 5.8787 0.720854 6.34032C1.12403 6.80195 1.45726 7.18393 1.46139 7.18918C1.4791 7.21163 5.73109 3.34309 5.73109 3.30451C5.73109 3.25013 4.3975 1.71868 4.35011 1.71868C4.33065 1.71868 3.3467 2.56505 2.16353 3.59949ZM7.74672 8.46868L8.82409 9.54681H12.3163H15.8085L16.8987 8.45729L17.989 7.36777L18.4925 7.87131L18.9961 8.37484L17.9065 9.4651L16.817 10.5554V14.0468V17.5382L17.9065 18.6285L18.9961 19.7188L18.4925 20.2223L17.989 20.7258L16.9222 19.6598L15.8553 18.5937H12.317H8.77872L7.71189 19.6598L6.64506 20.7258L6.14153 20.2223L5.638 19.7188L6.70408 18.652L7.77015 17.5851V14.0468V10.5085L6.70436 9.44195L5.63856 8.3754L6.12929 7.88298C6.3992 7.61213 6.63114 7.39056 6.64468 7.39056C6.65828 7.39056 7.15417 7.87571 7.74672 8.46868ZM9.18779 14.0585L9.19984 17.164L12.3053 17.176L15.4108 17.1881V14.0706V10.9531H12.2933H9.17575L9.18779 14.0585Z" fill="#FE724D"/>
</svg>
