<svg width="20" height="20" viewBox="0 0 20 20" fill="none" xmlns="http://www.w3.org/2000/svg">
<path fill-rule="evenodd" clip-rule="evenodd" d="M4.80497 2.39986L0.0237188 4.79967L0.0118595 12.0067L0 19.2137H0.797016H1.59403V13.2137V7.21374H9.60966H17.6253V13.2137V19.2137H18.4223H19.2193L19.2075 12.0067L19.1956 4.79967L14.4144 2.39986C11.7847 1.07995 9.62255 0 9.60966 0C9.59677 0 7.43466 1.07995 4.80497 2.39986ZM6.39047 8.87428C6.11457 8.96152 5.90208 9.10256 5.67427 9.34969C5.43816 9.60581 5.38697 9.72127 5.22732 10.3573C5.15977 10.6264 5.08388 10.9252 5.05866 11.0213L5.01282 11.1961L4.11202 11.2088L3.21122 11.2215V11.6133V12.005L3.79716 12.238C4.11942 12.3661 4.39856 12.4859 4.41741 12.504C4.4363 12.5222 4.26938 12.8102 4.04644 13.144C3.19345 14.4211 3.21342 14.328 3.21221 17.034L3.21122 19.1903L4.00932 19.2031L4.80746 19.2158L4.96214 18.4297C5.04722 17.9972 5.13807 17.5433 5.16399 17.4208L5.21119 17.1981H9.60966H14.0081L14.0553 17.4208C14.0813 17.5433 14.1721 17.9972 14.2572 18.4297L14.4119 19.2158L15.21 19.2031L16.0081 19.1903V17.034C16.0081 14.9031 16.0068 14.8737 15.8982 14.5279C15.7539 14.0684 15.6 13.7761 15.1447 13.0979C14.9375 12.7892 14.7834 12.5219 14.8021 12.5038C14.8209 12.4857 15.0999 12.3661 15.4222 12.238L16.0081 12.005V11.6133V11.2215L15.1073 11.2088L14.2065 11.1961L14.1614 11.0213C14.1365 10.9252 14.0516 10.5961 13.9726 10.2901C13.8937 9.98405 13.7866 9.66492 13.7347 9.58092C13.5958 9.3563 13.2432 9.04791 12.9929 8.93222C12.776 8.83195 12.7419 8.83083 9.67997 8.82169C7.22729 8.81433 6.54568 8.82525 6.39047 8.87428ZM12.4222 10.4267C12.4222 10.4407 12.496 10.7817 12.5862 11.1845C12.6765 11.5873 12.7503 11.9344 12.7503 11.9559C12.7503 11.9774 11.337 11.995 9.60966 11.995C7.88232 11.995 6.46904 11.9774 6.46904 11.9559C6.46904 11.9344 6.54286 11.5873 6.6331 11.1845C6.72333 10.7817 6.79716 10.4407 6.79716 10.4267C6.79716 10.4127 8.06279 10.4012 9.60966 10.4012C11.1565 10.4012 12.4222 10.4127 12.4222 10.4267Z" fill="#FE724D"/>
</svg>
