<svg width="48" height="46" viewBox="0 0 48 46" fill="none" xmlns="http://www.w3.org/2000/svg">
<path fill-rule="evenodd" clip-rule="evenodd" d="M17.6168 0.14355C16.0256 0.591459 14.7366 1.61639 13.9988 3.02046C13.0865 4.75651 13.0747 6.63325 13.9654 8.34194C14.1587 8.71307 14.333 9.05165 14.3526 9.09426C14.3722 9.13687 11.7449 9.18553 8.51391 9.2024C2.64471 9.233 2.63919 9.23322 2.09893 9.48161C1.46903 9.77131 0.834796 10.3504 0.476426 10.9632C0.053281 11.6869 -0.0303098 12.4686 0.00851181 15.3428C0.0434405 17.932 0.0506859 18.0057 0.324384 18.587C0.703516 19.3919 1.10363 19.8397 1.78944 20.2269L2.36549 20.5519L2.39437 32.0865L2.42335 43.621L2.67812 44.1076C3.02524 44.7706 3.61362 45.3667 4.2617 45.7119L4.80239 46H23.6725H42.5426L43.0833 45.7119C43.7314 45.3667 44.3198 44.7706 44.6669 44.1076L44.9217 43.621L44.9507 32.0865L44.9795 20.5519L45.5556 20.2269C46.2414 19.8397 46.6415 19.3919 47.0206 18.587L47.3007 17.9922V15.0184C47.3007 12.4131 47.2762 11.9741 47.1024 11.4756C46.8385 10.7188 46.0163 9.82549 45.2753 9.49059L44.7054 9.233L38.8311 9.2024C35.6002 9.18553 32.9728 9.13687 32.9924 9.09426C33.012 9.05165 33.1863 8.71307 33.3796 8.34194C34.7463 5.71981 33.9092 2.5692 31.4002 0.891867C30.5499 0.323385 29.7114 0.0665559 28.5265 0.0115136C26.8762 -0.0651564 25.5312 0.436713 24.3164 1.58244L23.6573 2.20402L23.0277 1.58968C22.3594 0.93761 21.507 0.447419 20.5439 0.161501C19.845 -0.0459077 18.3231 -0.0553158 17.6168 0.14355ZM20.5767 2.625C21.2275 2.94347 21.802 3.51703 22.181 4.22674C22.4127 4.66081 22.4312 4.83859 22.4638 6.94328L22.4988 9.19537L20.3552 9.15958C18.379 9.12659 18.1674 9.10388 17.6477 8.86933C16.2393 8.23391 15.3704 6.57421 15.6743 5.09974C15.8369 4.31087 16.0096 3.97651 16.566 3.37288C17.592 2.25982 19.2126 1.95768 20.5767 2.625ZM29.7034 2.5812C30.872 3.08588 31.718 4.40322 31.718 5.71851C31.718 7.02677 30.8802 8.33599 29.7034 8.86674C29.1765 9.10432 28.972 9.12649 26.9978 9.15947L24.862 9.19515L24.8627 7.15945C24.8633 4.91309 24.9223 4.56694 25.4327 3.81474C26.3981 2.39164 28.1157 1.8955 29.7034 2.5812ZM17.9157 14.9373L17.9442 18.3707H10.4728H3.00145L2.68537 18.0546L2.36928 17.7385V14.9967C2.36928 12.6386 2.39393 12.2198 2.54533 12.0035C2.93225 11.4511 2.86066 11.4558 10.6419 11.4807L17.8871 11.5039L17.9157 14.9373ZM27.1329 14.9103V18.3707H23.6725H20.2121V14.9103V11.4498H23.6725H27.1329V14.9103ZM44.2621 11.6006C44.9631 11.8934 44.9757 11.9539 44.9757 14.9967V17.7385L44.6597 18.0546L44.3436 18.3707H36.8737H29.4038V14.9824C29.4038 13.1187 29.4363 11.5615 29.476 11.522C29.5155 11.4823 32.7775 11.4498 36.7247 11.4498C42.6177 11.4498 43.9658 11.4768 44.2621 11.6006ZM17.9412 32.2689V43.7882L11.6175 43.7586L5.29377 43.7291L4.99401 43.4292L4.69425 43.1295L4.6657 31.9395L4.63715 20.7497H11.2892H17.9412V32.2689ZM27.1329 32.2664V43.7832H23.6725H20.2121V32.2664V20.7497H23.6725H27.1329V32.2664ZM42.6793 31.9395L42.6508 43.1295L42.351 43.4292L42.0513 43.7291L35.7275 43.7586L29.4038 43.7882V32.2689V20.7497H36.0559H42.7079L42.6793 31.9395Z" fill="#289944"/>
</svg>
