<svg width="24" height="24" viewBox="0 0 24 24" fill="none" xmlns="http://www.w3.org/2000/svg">
<path fill-rule="evenodd" clip-rule="evenodd" d="M11.1483 0.0135306C10.1277 0.102923 8.88254 0.362822 8.01028 0.668445C6.93383 1.04569 5.52574 1.81605 4.60861 2.5295C2.9025 3.85679 1.49953 5.76937 0.73239 7.8137C0.229311 9.15433 -0.000736576 10.4712 1.77146e-06 12.0065C0.000898337 14.0016 0.383943 15.6348 1.26316 17.3918C2.45105 19.7658 4.34302 21.6308 6.74454 22.795C7.97105 23.3896 9.01581 23.712 10.3541 23.9088C11.181 24.0304 12.8032 24.0304 13.6301 23.9088C18.5164 23.1903 22.433 19.6911 23.625 14.9788C23.9084 13.8584 23.9847 13.2283 23.9847 12.0065C23.9847 10.7847 23.9084 10.1545 23.625 9.03408C22.7742 5.67075 20.4649 2.81124 17.3451 1.25791C16.1907 0.683107 14.9391 0.293153 13.6741 0.114051C13.0856 0.0307235 11.6184 -0.0276587 11.1483 0.0135306ZM12.5335 1.42868C13.4191 1.74464 14.1752 2.59833 14.919 4.12196C15.2296 4.75836 15.6311 5.81953 15.6311 6.00433C15.6311 6.09525 15.1797 6.12573 12.9678 6.18417C11.8168 6.21455 8.41764 6.12911 8.35683 6.06825C8.31601 6.02743 8.66436 5.01072 8.93981 4.36699C9.59293 2.84024 10.5985 1.68388 11.5174 1.40257C11.7314 1.33707 12.3192 1.35216 12.5335 1.42868ZM8.74436 1.97284C8.06629 3.00268 7.55631 4.0457 7.2164 5.09764C7.08049 5.51823 6.96273 5.88746 6.95476 5.91815C6.93778 5.98318 6.57198 5.95459 4.81957 5.75144C4.16692 5.67581 3.60356 5.59781 3.56765 5.57814C3.48379 5.53231 3.7584 5.19283 4.44058 4.49894C5.25646 3.66909 6.09796 3.0513 7.14515 2.51337C7.62112 2.26887 8.66995 1.83393 8.79425 1.82944C8.81936 1.82855 8.79689 1.89305 8.74436 1.97284ZM15.7257 2.01909C16.7585 2.40499 17.826 3.01433 18.69 3.71118C19.1046 4.04565 20.1605 5.10829 20.3673 5.39925L20.488 5.56907L20.3669 5.59665C20.1072 5.65588 18.1552 5.87723 17.221 5.95343L17.0441 5.96783L16.7946 5.20311C16.3897 3.96243 16.0271 3.1716 15.4767 2.32883C15.344 2.12579 15.2166 1.93002 15.1934 1.89373C15.1339 1.80075 15.1542 1.80555 15.7257 2.01909ZM3.48316 6.93876C3.8556 6.99414 4.63498 7.09001 5.21511 7.15182C6.75704 7.31616 6.63168 7.28315 6.59187 7.51404C6.40733 8.58454 6.28229 9.65577 6.21362 10.7539L6.17818 11.3209H3.75666H1.33515L1.36795 11.044C1.49985 9.93149 1.68217 9.14062 2.00936 8.26198C2.25987 7.58909 2.64112 6.83803 2.73215 6.83803C2.77276 6.83803 3.11071 6.88333 3.48316 6.93876ZM21.5571 7.29949C22.1116 8.40633 22.442 9.57419 22.6162 11.044L22.649 11.3209H20.2275H17.806L17.7706 10.7539C17.702 9.65736 17.5667 8.49572 17.3932 7.51404C17.3523 7.28309 17.2275 7.316 18.7691 7.15119C19.3492 7.08917 20.0968 6.99672 20.4303 6.94572C21.3908 6.7989 21.2905 6.76736 21.5571 7.29949ZM11.1219 7.50291C12.7073 7.52617 13.9041 7.51689 14.7271 7.47496C15.4047 7.44041 15.9709 7.42396 15.9854 7.43846C16.0896 7.54262 16.4222 10.2457 16.4222 10.9879V11.3209H11.9921H7.562L7.56253 10.9912C7.56369 10.2964 7.77475 8.43423 7.9393 7.66688L7.9951 7.40687L8.37186 7.43746C8.57908 7.45428 9.8166 7.48377 11.1219 7.50291ZM6.21362 13.259C6.28218 14.3556 6.41746 15.5172 6.59102 16.4989C6.63163 16.7287 6.76791 16.6928 5.22165 16.8602C4.64511 16.9225 3.86193 17.0185 3.48126 17.0733C3.10059 17.1281 2.75968 17.1734 2.72371 17.1739C2.64007 17.1752 2.25154 16.4009 2.00604 15.7438C1.69261 14.9046 1.49621 14.0506 1.36795 12.969L1.33515 12.6921H3.75666H6.17818L6.21362 13.259ZM16.4222 13.025C16.4222 13.7714 16.0894 16.4705 15.9844 16.5755C15.9694 16.5904 15.479 16.5772 14.8946 16.546C13.5247 16.4729 10.3747 16.4732 9.05621 16.5465C8.49069 16.5779 8.01762 16.5933 8.0049 16.5806C7.90823 16.4839 7.63267 14.4213 7.58231 13.4172L7.54597 12.6921H11.9841H16.4222V13.025ZM22.6162 12.969C22.4416 14.4417 22.1118 15.6064 21.554 16.7196L21.3197 17.1872L21.1255 17.1563C20.6968 17.088 18.8305 16.8559 18.1459 16.7857C17.7452 16.7445 17.4052 16.6988 17.3904 16.6839C17.3755 16.6691 17.411 16.3641 17.4693 16.0062C17.6344 14.9915 17.7904 13.4513 17.7929 12.8107L17.7934 12.6921H20.2212H22.649L22.6162 12.969ZM14.1034 17.8643C14.9284 17.8954 15.6145 17.9318 15.6279 17.9452C15.6683 17.9856 15.3182 19.006 15.0444 19.6459C14.4779 20.9701 13.6245 22.049 12.8203 22.4578C12.4202 22.6612 11.8417 22.7188 11.4769 22.5917C10.5716 22.2761 9.82245 21.4377 9.06349 19.891C8.75027 19.2526 8.35309 18.1948 8.35309 17.9988C8.35309 17.9305 8.41442 17.9119 8.65634 17.9067C8.8231 17.9031 9.38678 17.8836 9.90889 17.8634C11.4435 17.804 12.5082 17.8042 14.1034 17.8643ZM7.18887 18.8053C7.57218 20.0102 8.16339 21.2544 8.69278 21.9704C8.76635 22.0698 8.81751 22.1602 8.80654 22.1712C8.77221 22.2055 7.76726 21.813 7.32468 21.5925C6.73669 21.2995 6.10624 20.9145 5.60037 20.5394C4.80232 19.9477 3.41671 18.5163 3.56527 18.4371C3.70841 18.3608 6.87829 18.013 6.9333 18.0676C6.95012 18.0842 7.06515 18.4162 7.18887 18.8053ZM19.4019 18.2853C20.5717 18.4277 20.5136 18.4077 20.3657 18.6159C20.1602 18.905 19.1032 19.9684 18.69 20.3017C17.8235 21.0006 16.7587 21.6079 15.7176 21.9969C15.4316 22.1037 15.1905 22.1838 15.1818 22.1749C15.173 22.166 15.3092 21.9333 15.4844 21.6577C16.0758 20.7273 16.7429 19.1888 17.0297 18.0941C17.046 18.0317 17.8512 18.0966 19.4019 18.2853Z" fill="#151424"/>
</svg>
