<svg width="52" height="48" viewBox="0 0 52 48" fill="none" xmlns="http://www.w3.org/2000/svg">
<path fill-rule="evenodd" clip-rule="evenodd" d="M4.65671 0.145223C3.22782 0.529456 2.43705 1.26701 1.26804 3.30582C0.125846 5.29781 0.00720508 5.62352 0.000302697 6.78922C-0.00970076 8.4543 0.211976 8.83153 3.12248 12.1031L5.22451 14.4659L3.52442 17.4049C1.21142 21.4034 0.983343 21.8389 0.783574 22.6404C0.356326 24.3542 1.17101 26.3077 2.74325 27.3391C4.35391 28.3958 20.0553 37.3675 20.6517 37.5719C21.3804 37.8217 22.2978 37.8652 23.0333 37.6848C23.7081 37.5195 46.2428 27.347 46.5391 27.0742C46.8195 26.8158 47.0609 26.3101 47.0609 25.9807C47.0609 25.8587 46.9681 25.5673 46.8548 25.3333C46.4952 24.5905 46.6171 24.6172 38.2078 23.4319C34.0264 22.8425 30.5916 22.3506 30.5749 22.3388C30.5583 22.3271 30.1652 20.9059 29.7015 19.1807C28.8038 15.8413 28.5204 15.1128 27.8481 14.4158C27.3011 13.8487 27.0245 13.6698 24.1029 11.9931C22.7275 11.2038 21.5627 10.5236 21.5144 10.4816C21.4308 10.4088 22.8129 7.88961 22.9365 7.88961C22.9692 7.88961 23.918 8.41859 25.0448 9.06501C26.9186 10.1402 27.1366 10.2404 27.5988 10.2404C28.2096 10.2404 28.6476 9.96763 28.9037 9.42794C29.1186 8.97508 29.0642 8.32386 28.778 7.92372C28.4739 7.49857 17.8379 1.37675 17.2922 1.31283C16.2987 1.19659 15.4287 2.26436 15.7424 3.21499C15.9131 3.73207 16.2425 3.98535 18.2509 5.14345C19.2688 5.73046 20.1427 6.24914 20.193 6.29625C20.2701 6.36848 19.1159 8.54243 18.8498 8.82593C18.8054 8.87325 17.3583 8.09598 15.634 7.09883L12.4989 5.2857L10.9484 3.5285C8.54226 0.80155 8.13752 0.464234 6.87898 0.13642C6.16904 -0.0484439 5.36506 -0.0453429 4.65671 0.145223ZM6.33329 3.09825C6.54767 3.17297 7.13327 3.75097 8.14882 4.89017C8.97331 5.81509 9.64794 6.62227 9.64794 6.68389C9.64794 6.74551 9.00902 7.90451 8.22815 9.25948L6.80836 11.723L6.3632 11.2319C6.11842 10.9617 5.27423 10.0072 4.48735 9.11093C2.57369 6.93107 2.586 7.0151 3.85584 4.81694C4.57298 3.57541 4.78076 3.31382 5.1964 3.12916C5.56763 2.9641 5.92115 2.9545 6.33329 3.09825ZM18.8067 12.3978C22.4349 14.4922 25.501 16.2972 25.6205 16.4091C25.9303 16.6994 25.9536 16.7717 27.0012 20.6921C27.5229 22.6442 28.0323 24.352 28.1332 24.4873C28.5935 25.1038 28.495 25.0814 34.5087 25.9349C40.0849 26.7261 40.1617 26.7401 39.8374 26.9045C39.0681 27.2943 28.7875 31.8979 28.6861 31.8979C28.5954 31.8979 6.28678 19.0668 6.16403 18.944C6.11272 18.8928 12.0635 8.58985 12.1444 8.58985C12.1804 8.58985 15.1785 10.3034 18.8067 12.3978ZM15.0342 27.5436C20.6522 30.7882 25.2161 33.4721 25.1761 33.5078C25.1361 33.5434 24.4733 33.8532 23.7033 34.196C22.5206 34.7227 22.2384 34.8121 21.8849 34.7722C21.5612 34.7358 19.5323 33.6089 12.9313 29.7995C8.23695 27.0905 4.27338 24.7588 4.12333 24.6181C3.78891 24.3045 3.60405 23.7791 3.68518 23.3733C3.77501 22.9244 4.54577 21.5786 4.69283 21.614C4.76245 21.6307 9.41606 24.299 15.0342 27.5436ZM44.4686 30.2159C44.0399 30.4281 44.0003 30.4901 43.1085 32.3416C39.5195 39.7932 39.1616 40.6689 39.1616 42.0014C39.1616 45.2381 41.9235 48 45.1602 48C48.3969 48 51.1588 45.2381 51.1588 42.0014C51.1588 40.6688 50.8011 39.7933 47.2108 32.3394C46.3119 30.473 46.2811 30.4252 45.8442 30.2136C45.2819 29.9414 45.0224 29.9418 44.4686 30.2159ZM45.9564 36.6746C48.2468 41.5385 48.1012 41.1775 48.1049 42.0014C48.109 42.911 47.8787 43.4844 47.2609 44.1021C46.6469 44.7162 46.0705 44.9483 45.1602 44.9483C44.2499 44.9483 43.6735 44.7162 43.0595 44.1021C42.4418 43.4844 42.2114 42.911 42.2155 42.0014C42.2187 41.2848 42.2503 41.1839 42.9205 39.7506C44.6272 36.1005 45.1094 35.099 45.1602 35.099C45.19 35.099 45.5484 35.808 45.9564 36.6746Z" fill="#289944"/>
</svg>
