<svg width="37" height="37" viewBox="0 0 37 37" fill="none" xmlns="http://www.w3.org/2000/svg">
<path fill-rule="evenodd" clip-rule="evenodd" d="M3.46188 6.12051C3.21062 6.25317 3 6.60429 3 6.89049C3 7.18579 3.2105 7.52865 3.47456 7.66339C3.69624 7.77646 3.82235 7.78319 5.7239 7.78319H7.73836L9.89861 15.5615C11.0867 19.8397 12.1002 23.4031 12.1508 23.4802C12.2013 23.5574 12.3447 23.6725 12.4693 23.7361C12.6904 23.8489 12.8946 23.8517 20.9134 23.8517C29.0616 23.8517 29.1329 23.8507 29.3684 23.7305C29.5338 23.6461 29.6415 23.5333 29.7235 23.3585C29.8774 23.0305 33.4706 10.636 33.4706 10.4334C33.4706 10.1637 33.2505 9.81823 32.996 9.68837C32.7631 9.56952 32.669 9.56857 21.4256 9.56857C10.6816 9.56857 10.0884 9.56316 10.0583 9.46442C10.0408 9.40711 9.85529 8.7436 9.64604 7.98987C9.43685 7.23614 9.22112 6.53341 9.16672 6.42826C9.1115 6.32137 8.96444 6.18425 8.83339 6.11742C8.6095 6.00315 8.48834 5.99792 6.14168 6.00042C3.81283 6.00292 3.67279 6.00922 3.46188 6.12051ZM27.5804 15.0445C27.8444 15.1793 28.0549 15.5221 28.0549 15.8174C28.0549 16.1127 27.8444 16.4556 27.5804 16.5903C27.3493 16.7082 27.2424 16.7101 20.909 16.7101H14.4724L14.235 16.5767C13.6361 16.2401 13.63 15.4255 14.2237 15.0661L14.4562 14.9253L20.9009 14.925C27.2427 14.9247 27.3493 14.9266 27.5804 15.0445ZM25.795 18.6153C26.059 18.75 26.2695 19.0929 26.2695 19.3882C26.2695 19.6835 26.059 20.0264 25.795 20.1611C25.5656 20.2782 25.453 20.2809 20.909 20.2809H16.2578L16.0204 20.1475C15.4215 19.8109 15.4154 18.9962 16.0091 18.6369L16.2416 18.4961L20.9009 18.4958C25.4534 18.4955 25.5655 18.4982 25.795 18.6153ZM14.9299 25.7201C14.4369 25.8398 14.0606 26.0554 13.6783 26.4369C12.6219 27.4912 12.6219 29.1408 13.6783 30.1924C14.7401 31.2494 16.3833 31.2501 17.4345 30.1941C18.4914 29.1323 18.4922 27.4923 17.4362 26.4362C16.7569 25.7569 15.8476 25.4971 14.9299 25.7201ZM25.6422 25.7201C25.1492 25.8398 24.7729 26.0554 24.3906 26.4369C23.577 27.249 23.3742 28.4415 23.8706 29.4957C24.0786 29.9375 24.6489 30.5039 25.0973 30.7139C26.1556 31.2095 27.3363 31.0083 28.1468 30.1941C29.2035 29.1326 29.2035 27.4977 28.1468 26.4362C27.476 25.7623 26.5537 25.4986 25.6422 25.7201Z" fill="white"/>
</svg>
