<svg width="48" height="48" viewBox="0 0 48 48" fill="none" xmlns="http://www.w3.org/2000/svg">
<path fill-rule="evenodd" clip-rule="evenodd" d="M7.91449 4.12846C7.33277 4.38515 6.96912 5.0865 7.0698 5.75746C7.14649 6.26915 7.75521 6.93225 8.23662 7.02853C8.40752 7.06275 10.3644 7.09068 12.5853 7.09068H16.6233L16.2064 7.3875C14.8664 8.34131 13.9829 9.07246 13.1132 9.94715L12.1332 10.9327L6.78949 10.9342C3.46877 10.935 1.31618 10.9715 1.10337 11.0305C0.905085 11.0857 0.621397 11.2803 0.429022 11.4932C-0.103946 12.0832 -0.142853 12.8193 0.326366 13.4346C0.79071 14.0433 0.65946 14.0282 5.48018 14.0282C7.88468 14.0282 9.83796 14.0599 9.82071 14.0985C9.80355 14.1371 9.50918 14.7383 9.16652 15.4344C7.15915 19.5126 6.57968 23.9029 7.45483 28.4041C7.91149 30.753 9.00537 33.4947 10.2474 35.4032L10.7659 36.2001L8.35577 36.2469C6.16371 36.2896 5.91696 36.3108 5.62746 36.4813C5.13255 36.7728 4.93165 37.1104 4.8888 37.7223C4.8573 38.1733 4.88721 38.3153 5.07021 38.5821C5.19087 38.7577 5.40855 38.9898 5.55405 39.0977C5.81093 39.2881 5.93037 39.2946 9.67258 39.3203L13.5266 39.3468L13.961 39.7531C14.4236 40.1858 16.2532 41.5736 16.4911 41.6723C16.5693 41.7048 13.1739 41.7524 8.94574 41.7782C1.87999 41.8213 1.23424 41.8382 0.96096 41.9877C0.498116 42.2409 0.241804 42.6736 0.199991 43.2721C0.157897 43.8738 0.374554 44.2893 0.922804 44.6587L1.23912 44.8719L15.1706 44.8701C30.0607 44.8682 29.8255 44.8747 32.0082 44.4C37.0217 43.3095 41.6206 40.1315 44.5844 35.7096C45.4266 34.453 46.483 32.2863 46.9497 30.8583C48.6308 25.7147 48.2495 20.2238 45.8797 15.4483C43.1823 10.0129 38.3755 6.08793 32.6152 4.61728C30.1814 3.9959 30.1951 3.99656 18.6168 4.00059C10.1787 4.00359 8.14221 4.02787 7.91449 4.12846ZM29.7262 7.23787C34.8912 7.89487 39.5075 10.8712 42.2703 15.3259C44.002 18.1178 44.8271 21.0577 44.8271 24.4344C44.8271 26.6871 44.5444 28.3335 43.8048 30.3876C42.1094 35.0962 38.1738 39.0301 33.4614 40.7268C30.148 41.9198 26.5532 42.0929 23.1694 41.2224C17.7217 39.8211 13.217 35.7457 11.2451 30.4344C10.0384 27.1841 9.85502 23.3609 10.746 20.0282C12.3891 13.8822 17.1737 9.15609 23.3134 7.61428C24.1022 7.41618 24.8131 7.29431 26.0082 7.15218C26.7668 7.062 28.6927 7.10643 29.7262 7.23787ZM25.3854 11.9181C20.8261 12.6856 16.9645 16.0253 15.4665 20.4965C15.0268 21.8089 14.8658 22.8742 14.8642 24.4813C14.8606 27.938 16.1041 30.907 18.5955 33.3908C20.5605 35.3497 22.8163 36.5174 25.4825 36.9557C26.7779 37.1686 29.2076 37.1012 30.3297 36.8211C31.9407 36.4191 33.3466 35.8001 34.6787 34.9066C35.6188 34.2759 37.4281 32.4516 38.0445 31.5126C40.3286 28.0331 40.8164 23.9314 39.4123 20.0093C37.9405 15.8979 33.9828 12.6307 29.6176 11.9233C28.5472 11.7498 26.4005 11.7472 25.3854 11.9181ZM25.9614 17.067V19.1684L25.1479 19.5622C24.5123 19.8698 24.1868 20.1054 23.659 20.64L22.9838 21.3241L21.121 20.7228C20.0965 20.392 19.2016 20.1003 19.1323 20.0744C19.0366 20.0387 19.0684 19.9209 19.2649 19.5825C20.2241 17.931 22.0186 16.3522 23.7612 15.6267C24.3394 15.3861 25.5613 15.0114 25.891 14.9737C25.9298 14.9693 25.9614 15.9112 25.9614 17.067ZM30.4145 15.3176C32.0341 15.8199 33.4708 16.7505 34.6268 18.0457C35.3061 18.807 36.0419 19.9241 35.9324 20.0279C35.8882 20.0698 34.9887 20.3807 33.9336 20.7187L32.0152 21.3334L31.5553 20.8174C31.0298 20.2277 30.2133 19.643 29.554 19.3841L29.102 19.2066L29.0768 17.0881L29.0516 14.9697L29.358 15.0274C29.5266 15.0591 30.002 15.1897 30.4145 15.3176ZM28.4457 22.3145C29.3406 22.7382 29.8239 23.4846 29.8239 24.4426C29.8239 25.1194 29.5734 25.6918 29.0845 26.1322C28.0645 27.0508 26.6265 26.9599 25.7366 25.9204C25.0161 25.0785 25.0158 23.7907 25.736 22.9492C26.4482 22.1172 27.506 21.8694 28.4457 22.3145ZM20.0752 23.6521L22.0171 24.2786L22.0698 24.7081C22.2112 25.8619 22.4457 26.5582 23.0053 27.4863L23.1779 27.7725L22.0261 29.3613C21.3925 30.2351 20.8386 30.9892 20.795 31.0369C20.6125 31.237 19.6256 29.9931 18.9888 28.7601C18.457 27.7301 18.1216 26.5854 17.9975 25.3752C17.906 24.4844 17.9551 23.0297 18.0767 23.0269C18.1078 23.0262 19.0071 23.3076 20.0752 23.6521ZM37.0756 23.651C37.2141 24.9439 36.9366 26.6901 36.3753 28.057C36.0244 28.9119 35.2418 30.1695 34.6498 30.8298L34.3375 31.1782L33.1729 29.5741C32.5323 28.6918 31.977 27.9172 31.9388 27.8527C31.8985 27.7848 32.0085 27.5046 32.2 27.1866C32.5954 26.5301 32.8516 25.7361 32.9397 24.8944L33.0044 24.2763L34.897 23.6604C35.9379 23.3217 36.8389 23.0408 36.8992 23.0363C36.9668 23.0314 37.0345 23.2676 37.0756 23.651ZM26.4301 29.7724C27.0294 29.9073 28.0696 29.8913 28.7245 29.7373C29.0325 29.6648 29.3117 29.6224 29.3449 29.6428C29.4267 29.6934 31.7739 32.9338 31.7739 32.9962C31.7739 33.1049 30.177 33.6547 29.3832 33.8194C27.6822 34.1723 25.7017 33.9973 24.016 33.3451C23.5907 33.1805 23.2426 33.0276 23.2426 33.0053C23.2426 32.9831 23.7956 32.2043 24.4716 31.2747C25.3771 30.0294 25.7411 29.5968 25.8544 29.631C25.9391 29.6566 26.1981 29.7202 26.4301 29.7724Z" fill="#289944"/>
</svg>
