<svg width="24" height="24" viewBox="0 0 24 24" fill="none" xmlns="http://www.w3.org/2000/svg">
<path fill-rule="evenodd" clip-rule="evenodd" d="M9.5513 0.0949396C9.44639 0.150346 9.34087 0.257736 9.28842 0.362408C9.24028 0.458643 9.08109 1.03305 8.9348 1.63891L8.66869 2.74047L8.23669 2.91531L7.80469 3.09011L6.78239 2.47778C5.89172 1.9443 5.73398 1.86546 5.55717 1.86546C5.44552 1.86546 5.29383 1.89747 5.22005 1.93661C5.058 2.02258 2.00194 5.08511 1.92291 5.24078C1.89225 5.30111 1.86717 5.44225 1.86717 5.55442C1.86717 5.73255 1.94475 5.88794 2.4795 6.78067L3.09183 7.80297L2.91703 8.23497L2.74219 8.66697L1.64062 8.93308C1.03477 9.07938 0.460266 9.23861 0.363891 9.28685C0.253406 9.34216 0.153938 9.4428 0.0943594 9.55957C0.00365625 9.73736 0 9.83205 0 11.9983C0 14.1645 0.00365625 14.2592 0.0943594 14.437C0.154125 14.5541 0.253031 14.654 0.363891 14.7092C0.460266 14.7571 1.03477 14.9163 1.64062 15.063L2.74219 15.3295L2.91703 15.7616L3.09183 16.1936L2.4795 17.2159C1.94602 18.1066 1.86717 18.2643 1.86717 18.4411C1.86717 18.5528 1.89909 18.7045 1.93809 18.7782C2.05903 19.0071 5.16323 22.0663 5.31141 22.1026C5.62284 22.1789 5.81142 22.1033 6.82031 21.4975L7.80469 20.9064L8.23673 21.0813L8.66873 21.2561L8.92373 22.2873L9.17873 23.3186L9.18309 20.4997L9.1875 17.6808L8.86561 17.4896C8.04891 17.0044 7.2472 16.2642 6.77367 15.5583C5.65875 13.896 5.38003 11.8834 6.00488 10.0061C6.33642 9.00986 6.76528 8.32469 7.54584 7.54413C8.12733 6.96264 8.53509 6.66522 9.23133 6.31469C9.57028 6.14402 9.72469 6.09203 9.89236 6.09203C10.1564 6.09203 10.3806 6.22858 10.5069 6.46628C10.5883 6.61938 10.5938 6.78635 10.5938 9.12569V11.6218L11.2969 12.092L12 12.5623L12.7031 12.092L13.4062 11.6218L13.4063 9.12644C13.4064 6.34483 13.3981 6.41988 13.7296 6.19844C13.9913 6.02364 14.2474 6.05228 14.769 6.31469C15.4723 6.66846 15.8755 6.96222 16.4542 7.54258C17.4023 8.49344 17.9645 9.53575 18.2194 10.8151C18.3333 11.3868 18.3334 12.6238 18.2196 13.1702C17.8348 15.018 16.7561 16.5338 15.1523 17.4803L14.8125 17.6808L14.8169 20.4997L14.8213 23.3186L15.0763 22.2873L15.3313 21.2561L15.7633 21.0813L16.1953 20.9064L17.1797 21.4985C18.0214 22.0048 18.1986 22.0937 18.4025 22.1121C18.5629 22.1266 18.6856 22.11 18.7775 22.0615C19.008 21.9397 22.0677 18.836 22.1043 18.6869C22.1806 18.3754 22.105 18.1869 21.4992 17.178L20.9081 16.1936L21.083 15.7629L21.2578 15.3322L22.3594 15.0656C22.9652 14.919 23.5397 14.7592 23.6361 14.7105C23.746 14.655 23.8464 14.5532 23.9056 14.437C23.9963 14.2592 24 14.1645 24 11.9983C24 9.83205 23.9963 9.73736 23.9056 9.55957C23.8464 9.44341 23.746 9.3416 23.6361 9.28605C23.5397 9.23735 22.9652 9.0776 22.3594 8.93097L21.2578 8.66439L21.083 8.23371L20.9081 7.80297L21.4992 6.8186C22.105 5.80971 22.1806 5.62113 22.1043 5.30969C22.068 5.16152 19.0088 2.05731 18.78 1.93638C18.7062 1.89738 18.5545 1.86546 18.4428 1.86546C18.266 1.86546 18.1083 1.9443 17.2176 2.47778L16.1953 3.09011L15.7633 2.91531L15.3313 2.74047L15.0652 1.63891C14.9189 1.03305 14.7597 0.458549 14.7114 0.362174C14.6561 0.25169 14.5555 0.152221 14.4387 0.0926427C14.2607 0.00184582 14.1685 -0.00162293 11.9902 0.000345822C9.82912 0.00231457 9.71864 0.00662707 9.5513 0.0949396ZM8.85745 8.21561C8.05317 8.87913 7.47009 9.81583 7.20661 10.8678C7.06477 11.4341 7.06505 12.6033 7.20717 13.1247C7.46634 14.0755 7.8952 14.8367 8.52839 15.4699C9.16162 16.1031 9.92283 16.5319 10.8735 16.7911C11.4134 16.9383 12.5704 16.9351 13.1453 16.7848C14.9842 16.3043 16.2808 15.0033 16.7928 13.1247C16.9402 12.584 16.9368 11.4283 16.786 10.8498C16.6416 10.2955 16.3839 9.70446 16.0994 9.27508C15.8658 8.92263 15.2423 8.25817 14.9648 8.06613L14.8125 7.96066V10.0482C14.8125 11.9393 14.8048 12.152 14.7305 12.3085C14.6624 12.452 14.4616 12.606 13.5464 13.2172C12.2925 14.0544 12.2 14.1077 12 14.1077C11.8 14.1077 11.7077 14.0545 10.4524 13.2166C9.69661 12.712 9.32738 12.4375 9.28003 12.3446C9.22327 12.2334 9.20677 11.83 9.1875 10.086L9.16406 7.96267L8.85745 8.21561ZM10.5938 21.086V23.9983H12H13.4062V21.0868V18.1753L13.2539 18.2039C12.4192 18.3602 11.7032 18.3612 10.793 18.2074L10.5938 18.1738V21.086Z" fill="#FE724D"/>
</svg>
