<svg width="25" height="24" viewBox="0 0 25 24" fill="none" xmlns="http://www.w3.org/2000/svg">
<path fill-rule="evenodd" clip-rule="evenodd" d="M8.9277 3C9.3477 3 9.6887 3.33438 9.6887 3.74722C9.6887 4.15907 9.3487 4.49345 8.9277 4.49345L7.2987 4.49444C5.9467 4.4964 4.8467 5.57604 4.8467 6.90279V8.76201C4.8467 9.17386 4.5047 9.50923 4.0847 9.50923C3.6647 9.50923 3.3237 9.17386 3.3237 8.76201V6.90279C3.3237 4.75331 5.1067 3.00294 7.2977 3.00098L8.9267 3H8.9277ZM16.1006 3.00029H17.6936C19.8906 3.00029 21.6766 4.75165 21.6766 6.90603V8.7623C21.6766 9.17415 21.3366 9.50952 20.9156 9.50952C20.4956 9.50952 20.1546 9.17415 20.1546 8.7623V6.90603C20.1546 5.57535 19.0506 4.49277 17.6936 4.49277H16.1006C15.6806 4.49277 15.3396 4.15936 15.3396 3.74751C15.3396 3.33468 15.6806 3.00029 16.1006 3.00029ZM15.2625 6.74266H9.7385C8.4745 6.75541 7.4585 7.76837 7.4695 9.00883V10.2542C7.4725 10.3993 7.5915 10.518 7.7395 10.5229H17.2595C17.4085 10.5189 17.5275 10.4003 17.5325 10.2542V9.00883C17.5335 8.40968 17.2975 7.83407 16.8715 7.40554C16.4485 6.98094 15.8675 6.74266 15.2625 6.74266ZM2.262 12.0412H22.739C23.159 12.0412 23.5 12.3756 23.5 12.7885C23.5 13.2003 23.159 13.5337 22.739 13.5337H21.677V17.0933C21.677 19.2486 19.89 21 17.694 21H16.101C15.68 21 15.339 20.6656 15.339 20.2528C15.339 19.8409 15.68 19.5065 16.101 19.5065H17.694C19.051 19.5065 20.155 18.4249 20.155 17.0933V13.5337H17.532V14.5251C17.542 15.7656 16.527 16.7795 15.262 16.7913H9.738C8.474 16.7795 7.459 15.7656 7.469 14.5251V13.5337H4.846V17.0972C4.846 18.424 5.947 19.5036 7.3 19.5056L8.928 19.5065C9.348 19.5065 9.689 19.8409 9.689 20.2528C9.688 20.6656 9.348 21 8.927 21L7.298 20.999C5.107 20.9971 3.323 19.2467 3.323 17.0972V13.5337H2.262C1.842 13.5337 1.5 13.2003 1.5 12.7885C1.5 12.3756 1.842 12.0412 2.262 12.0412Z" fill="#151424"/>
</svg>
