<svg width="32" height="32" viewBox="0 0 32 32" fill="none" xmlns="http://www.w3.org/2000/svg">
<path fill-rule="evenodd" clip-rule="evenodd" d="M14.6072 0.0591255C13.7432 0.14175 13.5373 0.367125 13.4376 1.33944C13.3583 2.11462 13.2053 2.56825 12.8363 3.12337C12.1821 4.10744 11.1909 4.636 10.0128 4.629C9.02309 4.62312 8.27377 4.34681 7.52515 3.71175C6.97496 3.245 6.63084 3.13562 6.28709 3.31819C5.93734 3.50394 5.10815 4.25075 4.24346 5.15875C3.14327 6.314 3.08459 6.63 3.82221 7.42694C4.44265 8.09737 4.74434 8.88012 4.74434 9.81969C4.74434 11.7328 3.41765 13.0927 1.32871 13.3207C0.588275 13.4016 0.344837 13.5144 0.2089 13.8397C-0.0777879 14.5259 -0.0663504 17.6542 0.224462 18.0981C0.373212 18.3251 0.8939 18.5568 1.2569 18.5576C2.1959 18.5595 3.21496 19.0574 3.85784 19.8284C4.44921 20.5376 4.71896 21.3587 4.66221 22.2769C4.60621 23.1827 4.36521 23.7501 3.70671 24.5262C3.10127 25.2399 3.11177 25.5084 3.77571 26.3003C4.26346 26.882 5.27115 27.8922 5.77559 28.3052C6.36509 28.7879 6.75602 28.7728 7.33909 28.2447C7.9959 27.6499 8.76665 27.3187 9.61934 27.2649C10.6576 27.1993 11.509 27.5089 12.2452 28.2197C12.9332 28.8839 13.2673 29.6388 13.3448 30.7039C13.3925 31.3616 13.4713 31.5577 13.7597 31.7359C14.291 32.0642 17.5218 32.0852 18.0721 31.7638C18.3769 31.5857 18.4798 31.3468 18.551 30.6519C18.6304 29.8767 18.7833 29.4231 19.1524 28.868C19.8066 27.8839 20.7978 27.3554 21.9759 27.3624C22.9656 27.3682 23.7149 27.6446 24.4635 28.2796C25.0137 28.7464 25.3578 28.8557 25.7016 28.6732C26.2248 28.3953 28.3023 26.3615 28.543 25.8917C28.7628 25.4625 28.659 25.0966 28.1665 24.5644C27.5373 23.8846 27.2443 23.1124 27.2443 22.1339C27.2443 21.1339 27.5995 20.3209 28.3383 19.6298C29.0075 19.0038 29.6944 18.718 30.7025 18.646C31.6466 18.5786 31.8237 18.3952 31.9283 17.3761C32.0579 16.1133 31.9723 14.2109 31.7721 13.9054C31.6053 13.6507 31.2619 13.4922 30.7498 13.4334C29.6021 13.3016 29.054 13.0582 28.3622 12.3732C27.5846 11.6031 27.2611 10.7727 27.3265 9.71444C27.3816 8.82 27.6316 8.23175 28.282 7.46512C28.8874 6.7515 28.8769 6.48294 28.213 5.69106C27.7252 5.10937 26.7175 4.09912 26.2131 3.68612C25.6331 3.21119 25.2163 3.22062 24.6817 3.72062C24.3041 4.07375 23.7663 4.39369 23.2521 4.57094C22.6975 4.76212 21.577 4.77475 21.0604 4.59562C19.9798 4.22087 19.1155 3.30869 18.7845 2.19375C18.7301 2.0105 18.6668 1.60269 18.6439 1.2875C18.5958 0.625813 18.5176 0.433875 18.2213 0.25075C17.8586 0.0266255 15.9861 -0.0726869 14.6072 0.0591255ZM17.2756 6.87769C20.7863 7.3265 23.8388 9.96331 24.8388 13.4109C25.2445 14.8094 25.3115 16.4281 25.0228 17.8521C24.8449 18.7299 24.3671 19.9969 24.0065 20.5474C23.9118 20.6917 23.8946 20.6764 21.8966 18.6792L19.8821 16.6655L19.9995 16.3245C20.679 14.3494 20.2208 12.1671 18.8118 10.6677C17.4116 9.178 15.5838 8.57519 13.5881 8.94506C12.9234 9.06825 12.7443 9.21975 12.7443 9.65919C12.7443 9.88106 12.8198 9.96931 14.1818 11.3394C15.8239 12.9912 15.6932 12.7413 15.5268 13.9119C15.4038 14.7772 15.3131 15.1105 15.1905 15.148C14.969 15.2157 13.9688 15.3699 13.4938 15.4095L12.9926 15.4513L11.5716 14.0399C10.79 13.2636 10.0719 12.5987 9.97571 12.5624C9.60815 12.4238 9.26265 12.7117 9.15596 13.2457C8.75921 15.2312 9.34521 17.1704 10.7546 18.5354C11.7587 19.5079 12.9496 20.028 14.3381 20.1006C15.1181 20.1413 15.6982 20.0686 16.415 19.8402L16.9006 19.6856L18.9163 21.6997C20.025 22.8075 20.9228 23.7416 20.9115 23.7756C20.8746 23.8861 19.5403 24.5284 18.9318 24.7284C15.352 25.9056 11.4758 24.8473 9.03765 22.0272C5.7059 18.1736 6.1199 12.3614 9.96277 9.039C12.0036 7.27456 14.5329 6.52706 17.2756 6.87769Z" fill="white"/>
</svg>
