<svg width="28" height="27" viewBox="0 0 28 27" fill="none" xmlns="http://www.w3.org/2000/svg">
<path fill-rule="evenodd" clip-rule="evenodd" d="M10.0203 0.0365859C9.98211 0.0520078 9.91441 0.134969 9.86995 0.220992C9.80098 0.354266 9.78906 0.898898 9.78906 3.90742V7.4375H10.2539H10.7188V3.71875V0L10.4043 0.00432034C10.2314 0.0066719 10.0586 0.0212187 10.0203 0.0365859ZM11.6484 3.71875V7.4375L13.2207 7.43673L14.793 7.43597L15.2738 5.86447C15.5382 5.00013 15.7536 4.26223 15.7523 4.22461C15.7505 4.17173 15.4244 4.15625 14.3103 4.15625H12.8706L12.738 4.01527C12.6092 3.87822 12.605 3.84628 12.5885 2.87301C12.5695 1.75645 12.6167 1.52157 12.8798 1.42155C12.9641 1.3895 13.7694 1.36719 14.8422 1.36719H16.6618L16.8622 0.724609C16.9725 0.371164 17.0627 0.0635469 17.0626 0.0410156C17.0626 0.0184844 15.8443 0 14.3555 0H11.6484V3.71875ZM18.1081 0.102813C17.9857 0.225203 18.0667 -0.0203985 16.872 3.85547C16.3436 5.56992 15.8761 7.07815 15.8332 7.2071L15.7553 7.44155L16.2504 7.42585L16.7456 7.41016L17.8595 3.82812C18.4721 1.85801 18.974 0.219242 18.9749 0.186375C18.9769 0.113367 18.6164 0 18.3823 0C18.2875 0 18.165 0.0459375 18.1081 0.102813ZM18.818 3.86991C18.2345 5.7569 17.7464 7.33157 17.7334 7.36914C17.7145 7.42334 18.4175 7.4375 21.1303 7.4375H24.5509L24.7521 6.79492C25.7312 3.66702 26.1206 2.37382 26.0921 2.34522C26.0533 2.30628 20.0158 0.43657 19.9336 0.438047C19.9035 0.438594 19.4015 1.98297 18.818 3.86991ZM0.162914 1.52398C0.0733359 1.61361 0 1.73923 0 1.80321C0 1.9617 0.140437 2.22141 0.248555 2.26291C0.297227 2.28156 1.17791 2.29742 2.20566 2.29808C3.9002 2.29917 4.09478 2.30863 4.29521 2.39969C4.55279 2.51666 4.78959 2.7767 4.83536 2.99283C4.85302 3.07628 5.47055 7.03281 6.20763 11.7852C6.94477 16.5375 7.57427 20.5611 7.60659 20.7266C7.63886 20.892 7.76502 21.2365 7.88692 21.4922C8.15309 22.0504 8.69477 22.621 9.22502 22.9018C9.66749 23.1359 10.3103 23.2969 10.8036 23.2969H11.199L11.0163 23.6387C10.3949 24.8005 10.8654 26.2136 12.0714 26.8073C12.4232 26.9805 12.4663 26.9883 13.0703 26.9883C13.6749 26.9883 13.7171 26.9806 14.0711 26.8063C15.2539 26.2241 15.7178 24.8423 15.1256 23.666L14.9397 23.2969H18.1932C19.9825 23.2969 21.4384 23.3156 21.4284 23.3385C21.4184 23.3615 21.3406 23.5193 21.2557 23.6893C20.676 24.849 21.1685 26.2521 22.3522 26.8128C22.7024 26.9787 22.7571 26.9883 23.3516 26.9883C23.9308 26.9883 24.0053 26.9761 24.2948 26.834C24.7764 26.5975 25.1754 26.2004 25.4118 25.722C25.5831 25.3755 25.6173 25.2449 25.6375 24.8608C25.6645 24.3466 25.5623 23.8933 25.3438 23.5578C25.2707 23.4457 25.2109 23.3411 25.2109 23.3254C25.2109 23.3097 25.7626 23.2969 26.4369 23.2969C27.1112 23.2969 27.7028 23.2816 27.7514 23.2629C27.8596 23.2214 28 22.9617 28 22.8032C28 22.7392 27.9281 22.615 27.8401 22.527L27.6803 22.3672H19.0677C10.7684 22.3672 10.443 22.3634 10.1222 22.2636C9.48866 22.0664 9.00069 21.6553 8.72047 21.0824C8.5966 20.8293 8.48947 20.4115 8.39448 19.8114L8.35784 19.5798L17.0168 19.5653L25.6758 19.5508L25.9835 19.3996C26.3464 19.2213 26.7517 18.8084 26.9217 18.4439L27.043 18.1836L27.0581 13.4367L27.0732 8.68979L26.9119 8.52852L26.7506 8.36719H16.69H6.62938L6.59673 8.18945C6.5788 8.09173 6.37864 6.81816 6.15191 5.35938C5.69975 2.4506 5.67323 2.3502 5.24355 1.92052C5.12159 1.79851 4.88245 1.63029 4.71209 1.54662L4.40234 1.39453L2.36409 1.3778L0.325828 1.36106L0.162914 1.52398ZM22.5952 2.71228C23.6278 3.031 24.5143 3.32883 24.5652 3.37422C24.7508 3.53943 24.7313 3.71979 24.4187 4.73216C24.1041 5.75083 23.9858 5.96094 23.727 5.96094C23.6201 5.96094 20.5081 5.01309 20.0239 4.83306C19.853 4.76952 19.7664 4.69788 19.7162 4.57855C19.6352 4.38583 19.6354 4.38462 20.022 3.1588C20.2565 2.415 20.3135 2.2872 20.4416 2.21763C20.5231 2.17339 20.6186 2.1362 20.6538 2.135C20.689 2.1338 21.5626 2.39356 22.5952 2.71228ZM13.5443 2.33335C13.5242 2.35337 13.5078 2.56298 13.5078 2.79918V3.22853L14.8043 3.21387L16.1009 3.19922L16.2259 2.78906C16.2947 2.56348 16.3511 2.36048 16.3512 2.33789C16.3516 2.2872 13.5949 2.28277 13.5443 2.33335ZM20.8464 3.64317C20.777 3.87177 20.7301 4.06864 20.7422 4.08078C20.7698 4.10834 23.3726 4.91903 23.3871 4.90459C23.4213 4.8703 23.6418 4.04562 23.6219 4.02637C23.5864 3.99219 21.108 3.22645 21.0348 3.22705C21.0006 3.22738 20.9158 3.41458 20.8464 3.64317ZM12.9105 9.45673L13.0703 9.61658V10.3864V11.1562H14.9297H16.7891L16.7899 10.4316C16.7908 9.63594 16.8334 9.47942 17.0818 9.36031C17.2671 9.27145 17.459 9.31219 17.6078 9.47193C17.7085 9.57999 17.7188 9.66295 17.7188 10.3736V11.1562H19.6055H21.4922V10.3633C21.4922 9.64666 21.5026 9.55992 21.6002 9.4623C21.8459 9.21665 22.2116 9.28227 22.3425 9.59558C22.3975 9.72721 22.4219 9.99523 22.4219 10.4684V11.1512L23.8941 11.1674L25.3664 11.1836L25.5074 11.3162C25.6823 11.4806 25.6938 11.74 25.5351 11.9418L25.4218 12.0859H23.9218H22.4219V13.9727V15.8594H23.9009H25.38L25.5142 15.9936C25.7118 16.1913 25.6976 16.4645 25.4802 16.6475L25.3119 16.7891H23.8669H22.4219V17.4744C22.4219 18.2555 22.3534 18.5054 22.1143 18.5964C22.0323 18.6275 21.8958 18.6377 21.8109 18.619C21.5306 18.5575 21.4922 18.4308 21.4922 17.5698V16.7891H19.6055H17.7188V17.5717C17.7188 18.2824 17.7085 18.3653 17.6078 18.4734C17.4552 18.6373 17.2381 18.6828 17.0671 18.5869C16.8316 18.4547 16.7908 18.2964 16.7899 17.5137L16.7891 16.7891H14.9297H13.0703V17.5589V18.3287L12.9105 18.4886C12.8141 18.5849 12.693 18.6484 12.6055 18.6484C12.518 18.6484 12.3968 18.5849 12.3005 18.4886L12.1406 18.3287V17.5589V16.7891H10.9339C9.71201 16.7891 9.57059 16.769 9.42167 16.5751C9.30688 16.4256 9.33827 16.1411 9.48582 15.9936L9.62002 15.8594H10.8804H12.1406V13.9727V12.0859H10.4078C8.70395 12.0859 8.67289 12.084 8.54842 11.967C8.40509 11.8324 8.37813 11.5192 8.49641 11.3635C8.6374 11.178 8.84773 11.1562 10.5036 11.1562H12.1406V10.3864V9.61658L12.3005 9.45673C12.3968 9.36037 12.518 9.29688 12.6055 9.29688C12.693 9.29688 12.8141 9.36037 12.9105 9.45673ZM13.0703 13.9727V15.8594H14.9297H16.7891V13.9727V12.0859H14.9297H13.0703V13.9727ZM17.7439 12.154C17.7292 12.1922 17.7237 13.0354 17.7317 14.0278L17.7461 15.832H19.6055H21.4648V13.9727V12.1133L19.6177 12.0989C18.1636 12.0875 17.7649 12.0993 17.7439 12.154Z" fill="white"/>
</svg>
