<svg width="57" height="44" viewBox="0 0 57 44" fill="none" xmlns="http://www.w3.org/2000/svg">
<path fill-rule="evenodd" clip-rule="evenodd" d="M25.9249 0.0589567C15.9937 0.906707 7.22173 6.88688 2.90446 15.7527C1.89229 17.8313 1.4041 19.1528 0.873186 21.2518C-0.817689 27.9358 -0.0413001 34.8213 3.10181 41.0167C3.93491 42.6589 4.32068 43.0433 5.14773 43.0559C5.63382 43.0633 5.89086 42.9427 8.14833 41.6484C9.50629 40.8698 10.7548 40.1037 10.9226 39.9459C11.7187 39.1982 11.5286 37.8371 10.558 37.3352C9.86123 36.9748 9.4215 37.0968 7.58647 38.1584L5.88194 39.1447L5.47447 38.296C4.45647 36.1762 3.4041 32.0789 3.4041 30.235V29.7937L5.4139 29.7933C7.22514 29.793 7.45916 29.7713 7.7826 29.574C8.87935 28.9054 8.83243 27.3406 7.69758 26.7405C7.25741 26.5077 7.08859 26.49 5.31402 26.49H3.4041V26.0082C3.4041 25.2599 3.82335 22.971 4.23654 21.4633C4.59985 20.1379 5.64616 17.4061 5.83535 17.2892C5.88678 17.2574 6.67187 17.6572 7.57997 18.1775C8.48807 18.698 9.40344 19.1517 9.61422 19.186C10.5676 19.3407 11.5462 18.3403 11.4129 17.3471C11.3168 16.6301 10.9942 16.3285 9.24111 15.316C8.33235 14.7912 7.58889 14.3231 7.58889 14.2761C7.58889 14.1291 8.75402 12.6137 9.6466 11.5998C10.7951 10.2952 12.5267 8.74437 13.7959 7.88374C14.2252 7.59268 14.351 7.55061 14.4293 7.67208C14.483 7.75544 14.9057 8.48172 15.3685 9.28619C16.2123 10.7526 16.6203 11.2333 17.1299 11.3613C18.3006 11.6551 19.457 10.5474 19.1523 9.42396C19.0943 9.20999 18.6477 8.34583 18.16 7.50347C17.6722 6.66123 17.2882 5.92658 17.3069 5.87086C17.3498 5.74212 18.7338 5.13048 19.9672 4.69504C21.778 4.05598 23.8549 3.59598 25.7872 3.40613L26.5306 3.33311L26.5308 5.30305C26.5309 6.95868 26.5616 7.3341 26.7235 7.65622C27.3158 8.83512 29.0491 8.83512 29.6414 7.65622C29.8031 7.33443 29.834 6.95945 29.8341 5.31824L29.8343 3.36351H30.085C30.5502 3.36351 32.1676 3.59268 33.2888 3.81745C35.1766 4.19584 39.0849 5.59708 39.0849 5.89552C39.0849 5.94409 38.6874 6.67037 38.2015 7.50942C37.7156 8.34847 37.2706 9.20999 37.2126 9.42396C36.908 10.5474 38.0643 11.6551 39.235 11.3613C39.7515 11.2317 40.1522 10.7494 41.0717 9.15041C41.5784 8.26929 42.0238 7.5483 42.0614 7.5483C42.1891 7.5483 43.739 8.75164 44.7573 9.64146C46.2377 10.9349 48.8505 13.9876 48.7458 14.3014C48.7267 14.359 47.9947 14.819 47.1192 15.3236C46.2331 15.8343 45.4101 16.3905 45.2631 16.5781C44.8727 17.0758 44.8272 17.8463 45.1596 18.3305C45.5695 18.9278 45.9688 19.1666 46.5576 19.1666C47.0092 19.1666 47.2937 19.0413 48.7551 18.1984C49.6785 17.6658 50.4765 17.2565 50.5286 17.2886C50.7186 17.406 51.7642 20.1345 52.1284 21.4633C52.5416 22.971 52.9608 25.2599 52.9608 26.0082V26.49H51.0509C49.2763 26.49 49.1075 26.5077 48.6673 26.7405C47.5325 27.3406 47.4856 28.9054 48.5823 29.574C48.9057 29.7713 49.1398 29.793 50.951 29.7933L52.9608 29.7937V30.2806C52.9608 31.1107 52.4438 33.8604 52.034 35.2093C51.6142 36.5916 51.1225 37.8909 50.7284 38.6595L50.483 39.1383L48.7784 38.1553C46.9436 37.0971 46.5027 36.9754 45.8069 37.3352C44.8365 37.837 44.6459 39.2008 45.4423 39.9442C45.6101 40.1009 46.86 40.8669 48.2198 41.6465C50.4601 42.931 50.7407 43.0632 51.212 43.0561C51.9469 43.045 52.3833 42.6756 52.9877 41.5531C54.5859 38.585 55.6627 35.2252 56.1742 31.6108C56.2526 31.0569 56.3156 29.5511 56.317 28.1969C56.3201 25.3495 56.1338 23.7789 55.4928 21.2518C54.9546 19.1299 54.4666 17.8123 53.4508 15.7392C49.3706 7.41328 41.4247 1.6255 32.219 0.274363C30.5488 0.0292228 27.4968 -0.0751768 25.9249 0.0589567ZM16.1809 15.4501C15.4046 15.84 15.0899 16.7688 15.4519 17.6008C15.5376 17.7977 17.3662 19.7103 19.5665 21.9041L23.527 25.853L23.3106 26.4193C22.6636 28.1125 23.0868 30.2317 24.3474 31.611C25.7533 33.1493 27.8483 33.7151 29.7845 33.0796L30.51 32.8414L31.5213 33.8383C32.6793 34.9802 32.8376 35.0799 33.4888 35.0794C34.3711 35.0786 35.1192 34.3558 35.12 33.5032C35.1206 32.9134 35.0067 32.7395 33.8323 31.5356C32.8666 30.5458 32.8016 30.4514 32.9259 30.2193C33.1642 29.7739 33.3557 28.8738 33.3571 28.1925C33.3641 24.6193 29.8577 22.125 26.4595 23.2859L25.8147 23.5061L21.7951 19.4969C19.5844 17.2918 17.636 15.4357 17.4655 15.3724C17.0183 15.2061 16.6182 15.2302 16.1809 15.4501ZM28.8085 26.3869C29.8521 26.7811 30.3405 28.0307 29.8369 29.018C29.4902 29.6974 29.0304 29.9589 28.1825 29.9589C27.3345 29.9589 26.8747 29.6974 26.528 29.018C25.7668 27.5258 27.2608 25.8021 28.8085 26.3869ZM22.0419 40.9159C20.9452 41.5846 20.9921 43.1494 22.127 43.7495L22.6007 44H28.1825H33.7642L34.238 43.7495C35.3728 43.1494 35.4197 41.5846 34.323 40.9159C33.9768 40.7048 33.7577 40.697 28.1825 40.697C22.6072 40.697 22.3881 40.7048 22.0419 40.9159Z" fill="#289944"/>
</svg>
